<svg width="573" height="654" viewBox="0 0 573 654" fill="none" xmlns="http://www.w3.org/2000/svg">
<path d="M560.333 154.528L298.334 3.24528C294.651 1.11926 290.474 0 286.222 0C281.97 0 277.793 1.11926 274.111 3.24528L12.1115 154.528C8.42781 156.655 5.36907 159.714 3.24297 163.398C1.11687 167.082 -0.00161618 171.261 1.7528e-06 175.515V478.066C-0.00161618 482.32 1.11687 486.499 3.24297 490.183C5.36907 493.867 8.42781 496.926 12.1115 499.053L274.111 650.335C277.793 652.461 281.97 653.581 286.222 653.581C290.474 653.581 294.651 652.461 298.334 650.335L560.333 499.053C564.016 496.926 567.075 493.867 569.201 490.183C571.327 486.499 572.446 482.32 572.444 478.066V175.501C572.443 171.25 571.324 167.074 569.198 163.392C567.072 159.711 564.014 156.653 560.333 154.528Z" fill="url(#paint0_linear_55_2)"/>
<path d="M47.39 189.244L124.006 145.084V288.553H194.935V104.335L271.145 61.1423V594.293L195.992 548.664V365.42H123.031V509.134L47.2275 463.957L47.39 189.244Z" fill="white"/>
<path d="M523.531 189.305L298.408 61.0543V594.084L523.504 464.1V341.427L510.37 325.321L523.531 312.269V189.305ZM447.626 421.239L376.967 460.505V366.273H447.626V421.239ZM447.626 288.736H376.967V194.498L447.626 233.764V288.736Z" fill="white"/>
<defs>
<linearGradient id="paint0_linear_55_2" x1="-53.5" y1="130" x2="572.002" y2="489.996" gradientUnits="userSpaceOnUse">
<stop stop-color="#7FAEC8"/>
<stop offset="0.504203" stop-color="#748494"/>
<stop offset="1" stop-color="#3B536F"/>
</linearGradient>
</defs>
</svg>
