<svg width="462" height="82" viewBox="0 0 462 82" fill="none" xmlns="http://www.w3.org/2000/svg">
<path d="M115.17 62.9918L115.884 57.7316C119.197 59.846 124.651 62.4759 131.889 62.4759C140.249 62.4759 144.938 59.1755 144.938 53.348C144.938 38.0318 114.609 48.2427 114.609 28.4396C114.609 19.0539 120.726 14 131.736 14C142.338 14 147.385 18.3835 148.302 25.7581L143.103 26.7895C142.288 21.2714 138.567 18.6413 131.634 18.6413C124.294 18.6413 119.961 21.9418 119.961 27.9239C119.961 43.9107 150.035 32.8232 150.239 53.245C150.29 62.7854 144.173 67.4783 131.991 67.4783C123.02 67.3752 117.974 64.8482 115.17 62.9918Z" fill="#151516"/>
<path d="M163.796 35.9687V57.8346C163.796 61.8571 165.58 62.7853 168.282 62.7853C170.779 62.7853 172.411 62.0634 173.532 61.5993L173.94 66.189C172.716 66.6016 170.422 67.3752 166.956 67.3752C161.604 67.3752 158.597 65.467 158.597 57.8862V35.9687H152.174V31.5337H158.597V21.3229H163.796V31.5337H174.755V35.9687H163.796Z" fill="#151516"/>
<path d="M197.081 31.2759L196.724 36.4328C196.317 36.2782 195.348 36.1234 194.073 36.1234C188.874 36.1234 185.561 42.3119 185.561 47.9846V67.3297H180.362V31.5337H184.899L185.256 38.2378C187.192 33.8027 190.302 30.8118 193.971 30.8118C195.604 30.8118 196.52 31.0696 197.081 31.2759Z" fill="#151516"/>
<path d="M229.246 63.7651C227.462 65.3122 222.824 67.4266 215.686 67.4266C204.574 67.4266 199.02 60.7224 199.02 49.3254C199.02 38.5472 204.473 30.8118 216.094 30.8118C225.27 30.8118 229.042 35.6077 229.042 40.8679C229.042 49.7379 221.599 52.5228 204.473 53.2448C205.543 60.1553 209.876 62.7852 216.094 62.7852C222.16 62.7852 226.747 60.1553 228.226 58.969L229.246 63.7651ZM204.217 49.016C219.204 48.4487 223.893 46.747 223.893 41.2289C223.893 38.444 221.957 35.4014 215.942 35.4014C209.57 35.4014 204.371 38.9597 204.217 49.016Z" fill="#151516"/>
<path d="M264.263 31.5337V67.4266H259.93L259.37 61.4959C257.076 65.0028 253.15 67.4266 247.748 67.4266C238.522 67.4266 232.559 60.8772 232.559 49.6865C232.559 37.8769 239.133 30.8118 248.461 30.8118C253.712 30.8118 257.332 32.8746 259.421 35.8655L259.93 31.5853H264.263V31.5337ZM259.065 52.8837V46.5921C259.065 41.693 256.617 35.3498 248.971 35.3498C241.835 35.3498 237.707 40.8163 237.707 49.6349C237.707 58.0923 241.53 62.7337 248.461 62.7337C255.088 62.7852 259.065 58.505 259.065 52.8837Z" fill="#151516"/>
<path d="M323.848 44.7356V67.5299H318.65V45.5607C318.65 39.2692 316.202 35.5561 310.799 35.5561C304.326 35.5561 300.707 40.6616 300.707 45.3029V67.4783H295.61V45.1483C295.61 39.0113 293.113 35.5046 287.811 35.5046C281.337 35.5046 277.77 40.6616 277.77 45.3545V67.4783H272.57V31.5337H276.596L277.311 37.5158C279.401 33.6481 283.375 30.8118 289.136 30.8118C294.539 30.8118 298.21 33.3386 299.79 38.0831C301.828 33.8543 306.008 30.8118 312.023 30.8118C319.617 30.8118 323.848 35.453 323.848 44.7356Z" fill="#151516"/>
<path d="M369.013 14.7734L350.255 46.6439V67.313H340.52V46.6439L321.762 14.7734H332.722L345.465 37.516L358.309 14.7734H369.013Z" fill="#151516"/>
<path d="M396.436 31.5337V67.4266H389.249L388.077 62.2695C385.782 65.4153 381.959 67.4266 376.965 67.4266C367.789 67.4266 361.417 60.774 361.417 49.6349C361.417 37.8769 368.401 30.8118 377.626 30.8118C382.47 30.8118 385.834 32.6167 388.026 35.2468L388.841 31.5337H396.436ZM386.903 51.5945V46.5407C386.547 42.4666 384.254 38.9083 379.206 38.9083C374.109 38.9083 370.644 42.5698 370.644 49.4801C370.644 55.9779 373.65 59.3301 378.85 59.3301C383.947 59.2785 386.903 56.0295 386.903 51.5945Z" fill="#151516"/>
<path d="M423.604 31.3789L423.042 40.507C422.483 40.3006 421.463 39.9913 419.883 39.9913C416.212 39.9913 412.799 43.3433 412.799 49.9958V67.2964H403.215V31.5337H410.912L411.727 36.7939C413.614 33.1324 416.468 30.8118 420.086 30.8118C421.922 30.8118 423.145 31.1726 423.604 31.3789Z" fill="#151516"/>
<path d="M459.031 14.7734V67.4266H451.029L450.111 62.5274C447.614 65.3638 443.842 67.4266 438.796 67.4266C430.384 67.4266 424.166 61.5993 424.166 49.6865C424.166 37.7738 430.74 30.8117 441.191 30.8117C444.657 30.8117 447.409 31.4823 449.499 32.3588V14.7734H459.031ZM449.447 50.46V41.0742C447.765 39.8882 445.422 38.9082 442.26 38.9082C437.163 38.9082 433.748 42.2605 433.748 49.5318C433.748 56.5453 436.909 59.2786 441.037 59.2786C445.624 59.2786 449.447 55.8234 449.447 50.46Z" fill="#151516"/>
<path d="M84.2009 46.6842C83.2814 46.0589 82.3621 45.3815 81.4938 44.7564C75.8754 40.7444 69.2354 33.8147 67.9585 32.46C67.2946 28.5002 66.1197 23.7067 62.3913 18.1839C59.4799 12.9736 54.219 9.95165 51.0522 8.54487C48.3452 1.45888 34.9631 0.416822 29.8044 0.0521021C29.1916 -7.97131e-07 28.5786 0 27.9657 0C17.7505 0 15.6563 7.13809 15.2477 10.108C12.6939 10.2643 10.4976 10.8895 8.6078 11.9837C2.73401 15.4745 1.09957 22.5084 0.742031 27.7708C0.435572 32.6686 0.690954 34.5962 0.742031 34.961C1.15064 38.9208 2.22325 41.8907 6.25828 45.121C3.60231 57.3652 2.63185 71.6414 2.58078 71.7978L2.5297 72.1624L2.73401 72.475C2.93831 72.7877 8.40348 80.0301 20.4065 80.7595C20.9173 80.8116 21.479 80.8116 21.9897 80.8116C35.1165 80.8116 39.9176 70.4431 40.122 70.0262L40.3263 69.6094L40.1729 69.1925C40.1729 69.1925 38.9983 65.9101 40.7859 59.8662C42.2671 54.8644 47.528 53.9785 48.9071 53.8743C55.2405 58.772 72.8618 68.1504 77.4588 70.0262C79.7572 70.9641 81.9534 71.4851 83.8944 71.4851C86.1928 71.4851 87.9294 70.7557 88.7466 69.5051C90.1257 67.2648 89.8704 65.1286 87.9805 63.2007C88.4912 63.305 89.1042 63.3571 89.7681 63.4612C90.3811 63.5655 91.1984 63.6177 91.9645 63.6177C94.7737 63.6177 96.3571 62.263 96.7656 59.4493C97.2252 56.0626 92.1177 52.155 84.2009 46.6842ZM22.0408 79.8215C21.9897 79.8215 21.9897 79.8215 21.9388 79.8215C22.1431 79.8215 22.3473 79.8215 22.6027 79.8215C22.3984 79.8215 22.2451 79.8215 22.0408 79.8215ZM27.7614 1.09416C27.8125 1.09416 27.9147 1.09416 27.9657 1.09416C28.119 1.09416 28.221 1.09416 28.3744 1.09416C28.221 1.09416 27.9657 1.04206 27.7614 1.09416ZM34.8611 1.66729C35.5761 1.7715 36.3422 1.8757 37.1084 1.9799C36.3422 1.8757 35.5761 1.71939 34.8611 1.66729Z" fill="#151516"/>
<path d="M81.2387 45.6422C74.8542 41.1092 67.346 32.981 67.346 32.981C66.6819 28.8129 65.5584 24.2278 61.8808 18.8092C58.9183 13.4946 53.3511 10.5769 50.5928 9.37853C48.5498 2.60516 35.1679 1.511 30.1112 1.14628C16.2696 0.104223 16.525 11.6189 16.525 11.6189L11.5705 28.344L7.84195 44.4959C4.98169 57.0006 4.01123 71.9019 4.01123 71.9019C4.01123 71.9019 9.22102 79.04 20.9176 79.7695C34.7081 80.603 39.6115 69.6094 39.6115 69.6094C39.6115 69.6094 38.2835 66.1185 40.2243 59.6057C42.1653 53.0927 49.6736 52.8322 49.6736 52.8322C55.7515 57.6779 73.7816 67.2648 78.2762 69.0884C83.5882 71.2768 87.3169 70.5472 88.2873 68.9841C89.2577 67.4211 89.6664 65.4412 86.755 63.1486C84.8651 61.6898 83.7414 60.9083 83.7414 60.9083C85.8866 61.4293 86.142 61.9503 90.3303 62.4713C93.2928 62.8361 95.6423 62.8361 96.1531 59.3973C96.5616 55.8543 87.9808 50.4355 81.2387 45.6422Z" fill="#151516"/>
<path d="M22.2947 70.808C14.2246 70.5475 9.52559 67.7339 7.94222 66.6397L7.38037 70.7038C7.38037 70.7038 13.5606 76.6434 21.7329 76.6434C24.6443 76.6434 30.3648 76.956 35.9832 69.4533C35.9832 69.4533 35.7789 67.8903 35.8809 65.7019C33.8379 67.7339 30.8245 71.0685 22.2947 70.808Z" fill="#FEFFFF"/>
<path d="M7.38037 66.2229C7.38037 66.2229 7.58461 66.3792 7.94204 66.6397L7.99309 66.1708L7.38037 66.2229Z" fill="#151516"/>
<path d="M36.8536 64.764L35.9344 64.8162C35.9344 65.1288 35.8833 65.3894 35.8833 65.702C36.2408 65.3372 36.5472 65.0246 36.8536 64.764Z" fill="#151516"/>
<path d="M63.105 27.5104C59.7851 19.226 53.7069 12.6611 46.9139 10.4207C40.1207 8.18026 29.8543 6.14826 26.6877 13.9637C26.6877 13.9637 11.6711 40.5362 10.7007 46.7885L8.04473 66.1708L7.99365 66.6396C9.52595 67.7338 14.2761 70.5473 22.3461 70.8078C30.8758 71.0683 33.9405 67.7338 35.9324 65.6497C35.9324 65.3892 35.9835 65.0766 35.9835 64.7639C36.2389 61.794 37.0051 57.9906 39.3035 55.0729C43.6449 49.55 51.2043 49.3414 51.2043 49.3414C51.2043 49.3414 56.9248 50.0189 60.9088 45.7986C64.8927 41.5782 66.374 35.8468 63.105 27.5104Z" fill="#016666"/>
<path d="M68.011 50.5397C68.011 50.5397 73.6294 55.6458 75.6724 57.4173C77.7156 59.1889 86.2454 65.2849 86.2963 66.6396C86.2963 66.9521 64.8954 56.6357 64.8954 56.6357C64.8954 56.6357 46.559 43.6621 46.6611 43.2975C46.7633 42.9327 47.4272 40.3276 47.8359 40.1714C48.2445 40.015 56.8764 40.3276 56.8764 40.3276L68.011 50.5397Z" fill="#79455B"/>
<path d="M47.733 43.5581C49.2141 43.7665 57.5907 46.9969 62.4429 51.0608C67.3464 55.1249 75.5697 60.9604 77.9703 62.1067C80.3707 63.305 86.4489 65.858 86.2958 66.8481C86.1424 67.838 85.4274 69.5053 79.86 67.2648C74.2928 64.9724 59.838 56.2191 57.795 54.8122C55.752 53.4054 45.4346 46.2154 45.4346 46.2154L47.733 43.5581Z" fill="#C8842C"/>
<path d="M31.2869 27.1976C33.33 26.7807 39.5102 26.8328 44.2604 31.5222C49.0103 36.2114 49.8276 39.9629 48.4996 43.2974C47.1716 46.6319 44.72 49.1329 39.8167 46.4757C34.9134 43.8184 30.2143 40.536 28.733 36.4719C27.2518 32.4079 31.2869 27.1976 31.2869 27.1976Z" fill="#02A484"/>
<path d="M2.12051 34.9089C2.5802 39.1292 3.75495 41.9429 8.55613 45.3817C10.7524 46.9447 13.1019 48.1952 18.1074 47.7784C23.164 47.3615 26.7393 43.9227 28.4249 40.1713C30.1103 36.42 32.9706 27.7708 30.8765 20.7891C28.8334 13.8073 25.0027 12.8695 23.1129 12.2442C21.223 11.5669 14.5321 9.95169 9.42443 12.9737C4.3168 15.9956 2.42696 22.1438 2.06943 27.9272C1.76297 33.1896 2.12051 34.9089 2.12051 34.9089Z" fill="#151516"/>
<path d="M11.0067 16.3083C11.0067 16.3083 13.6116 14.5889 18.4638 15.631C23.316 16.673 26.3296 20.2161 26.3296 24.5405C26.3296 28.8651 25.8189 36.6805 21.886 40.6403C18.6681 43.8707 10.2405 45.538 6.8695 38.9731C3.49846 32.4082 11.8239 27.5626 11.8239 27.5626L11.0067 16.3083Z" fill="#094AF1"/>
<path d="M36.495 20.7891C35.8309 18.6528 37.5675 15.8914 41.9602 14.9535C46.3528 14.0157 50.8985 14.9535 53.248 19.1739C55.5975 23.3942 51.1539 25.4783 48.6001 26.0515C46.0463 26.6247 38.1293 26.0515 36.495 20.7891Z" fill="#02A484"/>
<path d="M42.6226 28.865C43.0311 25.791 44.9721 23.5505 46.9129 23.3421C47.8324 23.2378 48.5474 23.7069 49.0582 24.3841C48.8028 23.5505 48.3943 22.8211 47.8835 22.1958C45.7383 19.799 41.6011 21.7269 40.3242 26.4682C39.0473 31.2096 40.8349 35.0132 42.6737 35.5342C43.5419 35.7947 44.2571 35.7425 44.921 35.5863C44.7679 35.5342 44.6656 35.5342 44.5125 35.4299C41.7542 34.0232 42.4694 30.0113 42.6226 28.865Z" fill="#FDFFFF"/>
<path d="M49.0618 24.384C49.828 26.7808 49.4193 29.8028 48.5511 31.6264C47.6827 33.3978 46.559 35.0652 44.8735 35.5341" fill="#151516"/>
<path d="M48.55 31.6263C49.4182 29.8027 49.7758 26.7807 49.0608 24.3839C48.55 23.7067 47.7839 23.2376 46.9155 23.3419C44.9747 23.5503 42.9826 25.7908 42.6252 28.8648C42.4718 30.0111 41.8079 34.075 44.5149 35.3777C44.6682 35.4297 44.7703 35.4818 44.9236 35.534C46.609 35.0651 47.7328 33.3977 48.55 31.6263Z" fill="#151516"/>
<path d="M89.5128 57.6257C88.2359 56.3753 86.6014 54.9685 87.1124 54.3433C87.4187 53.9786 88.1848 53.9264 89.3086 54.3433C86.959 52.676 83.9456 50.644 80.7277 48.3514C73.4749 43.1933 64.894 35.0132 64.0258 34.3879C61.0633 32.1997 60.5526 34.5443 60.5015 35.6904C60.4504 36.8368 60.4504 38.2436 57.8455 39.4419C55.2405 40.6403 52.2271 39.494 50.4395 39.2335C48.6518 38.973 48.805 40.4318 49.6733 41.1614C52.5847 43.5581 82.6687 58.4594 89.0021 59.7619C89.2063 59.8141 89.3597 59.8141 89.5639 59.8662C89.8193 59.4495 90.4323 58.5115 89.5128 57.6257Z" fill="#FFCC34"/>
<path d="M93.8543 58.9284C94.0588 58.0948 92.1689 56.4795 89.2575 54.3433C88.134 53.8744 87.3676 53.9787 87.0613 54.3433C86.6015 54.9165 88.236 56.3753 89.4618 57.6259C90.3813 58.5115 89.8194 59.4495 89.4109 59.8662C92.8839 60.5436 93.548 60.3872 93.8543 58.9284Z" fill="#C8842C"/>
<path d="M63.3608 41.526C63.8715 42.8285 66.3742 44.2354 67.7022 43.9227C69.0814 43.61 68.4174 42.2032 66.7318 40.536C65.0464 38.9208 62.3904 38.9728 63.3608 41.526Z" fill="#C8842C"/>
<path d="M14.5317 46.9967L14.8382 75.8617L18.3114 76.9559L17.8517 46.9967H14.5317Z" fill="#151516"/>
<path d="M21.5817 36.524C18.8747 42.7763 14.3289 42.5679 10.4471 41.578C6.36101 40.536 5.2884 36.4198 5.13517 32.5642C5.0841 30.4801 5.85025 21.8309 8.50622 18.288C11.1622 14.745 16.0655 15.6308 17.5467 16.0476C19.0279 16.4644 24.5442 19.2258 23.727 25.9993C22.9097 33.1374 22.6033 34.1794 21.5817 36.524Z" fill="white"/>
<path d="M7.99365 35.1172L8.86194 31.9911C8.86194 31.9911 12.5394 33.9711 14.276 33.2415C15.9616 32.5121 15.1954 30.6885 13.3056 29.907C11.4158 29.0733 8.96409 27.7708 9.93455 23.9152C10.905 20.0595 13.4588 18.9132 19.588 21.258L18.4643 24.5925C18.4643 24.5925 13.4588 22.0395 12.9991 24.7487C12.6927 26.7808 19.8945 27.0414 18.6175 32.7205C16.8299 39.8586 7.99365 35.1172 7.99365 35.1172Z" fill="#094AF1"/>
</svg>
