<svg height="64" viewBox="0 0 64 64" width="64" xmlns="http://www.w3.org/2000/svg"><g transform="matrix(3.612272 0 0 3.612272 -263.19399 -78.704)"><g fill-rule="evenodd"><path d="m81.719758 23.802251c3.787034 0 6.857502 3.064596 6.857502 6.844389s-3.070468 6.84439-6.857502 6.84439c-3.787035 0-6.857503-3.064597-6.857503-6.84439s3.070468-6.844389 6.857503-6.844389" fill="#198cff"/><path d="m73.146951 30.64664c0 4.724741 3.839013 8.552708 8.572807 8.552708 4.733793 0 8.572806-3.831672 8.572806-8.556413s-3.839013-8.556414-8.572806-8.556414c-4.733794 0-8.572807 3.835378-8.572807 8.560119zm1.715304 0c0 3.779793 3.070468 6.84439 6.857503 6.84439 3.787034 0 6.857502-3.064597 6.857502-6.84439s-3.070468-6.844389-6.857502-6.844389c-3.787035 0-6.857503 3.064596-6.857503 6.844389z" fill="#fff"/><path d="m72.861067 30.64664c0 4.884086 3.965248 8.841751 8.858691 8.841751 4.893442 0 8.85869-3.957665 8.85869-8.841751 0-4.884085-3.965248-8.841751-8.85869-8.841751-4.893443 0-8.858691 3.957666-8.858691 8.841751zm.285884 0c0-4.724741 3.835301-8.556413 8.572807-8.556413s8.572806 3.831672 8.572806 8.556413-3.8353 8.556414-8.572806 8.556414-8.572807-3.831673-8.572807-8.556414zm2.001188 0c0 3.620449 2.940521 6.559053 6.571619 6.559053 3.631097 0 6.571618-2.934898 6.571618-6.559053 0-3.620448-2.940521-6.559052-6.571618-6.559052-3.631098 0-6.571619 2.934898-6.571619 6.559052zm-.285884 0c0-3.779793 3.070468-6.844389 6.857503-6.844389 3.787034 0 6.857502 3.064596 6.857502 6.844389s-3.070468 6.84439-6.857502 6.84439c-3.787035 0-6.857503-3.064597-6.857503-6.84439z" opacity=".5"/><path d="m84.667704 37.798601c2.610084-1.107998 4.436771-3.687151 4.436771-6.688751 0-4.016956-3.270958-7.270543-7.303036-7.270543-4.035791 0-7.303037 3.257293-7.303037 7.270543 0 4.002134 3.252395 7.252015 7.269622 7.270543h-.03713c-4.232568 0-7.666889-3.416636-7.666889-7.629994 0-4.213357 3.430608-7.633699 7.663176-7.633699s7.666889 3.416636 7.666889 7.629994c0 3.179473-1.952922 5.903147-4.726368 7.051907zm-3.089032.667023c4.73008 0 8.561668-3.81685 8.561668-8.523063 0-.43727-.03341-.870834-.09653-1.289576.15965.648494.245044 1.326633.245044 2.027007 0 4.706212-3.835301 8.523062-8.561669 8.523062-4.28826 0-7.841389-3.138711-8.465136-7.233486.913344 3.727913 4.28826 6.496056 8.316625 6.496056z" fill-opacity=".1"/><path d="m81.719758 25.514274c2.840276 0 5.142199 2.297522 5.142199 5.132366 0 2.834845-2.301923 5.132366-5.142199 5.132366s-5.142199-2.297521-5.142199-5.132366c-.0037-2.834844 2.301923-5.132366 5.142199-5.132366z" fill="#f3f3f3"/><path d="m81.719758 25.514274c-2.840276 0-5.142199 2.297522-5.142199 5.132366 0 2.834845 2.301923 5.132366 5.142199 5.132366s5.142199-2.297521 5.142199-5.132366c0-2.834844-2.301923-5.132366-5.142199-5.132366zm0-.285337c2.999925 0 5.428082 2.42722 5.428082 5.417703 0 2.994189-2.43187 5.417703-5.428082 5.417703-2.996213 0-5.428083-2.42722-5.428083-5.417703-.0037-2.994188 2.428157-5.417703 5.428083-5.417703z" fill-opacity=".25"/><path d="m84.003117 30.64664c0 1.259931-1.024727 2.282699-2.287072 2.282699s-2.287072-1.022768-2.287072-2.282699 1.024727-2.282698 2.287072-2.282698 2.287072 1.022767 2.287072 2.282698z" fill-opacity=".05"/></g><path d="m84.003117 30.64664c0 1.259931-1.024727 2.282699-2.287072 2.282699s-2.287072-1.022768-2.287072-2.282699 1.024727-2.282698 2.287072-2.282698 2.287072 1.022767 2.287072 2.282698z" fill="none"/><path d="m83.717233 30.64664c0-1.104292-.89478-1.997361-2.001188-1.997361s-2.001188.893069-2.001188 1.997361c0 1.104293.89478 1.997362 2.001188 1.997362 1.106408-.0037 2.001188-.896775 2.001188-1.997362zm.285884 0c0 1.259931-1.024727 2.282699-2.287072 2.282699s-2.287072-1.022768-2.287072-2.282699 1.024727-2.282698 2.287072-2.282698 2.287072 1.022767 2.287072 2.282698z" fill-opacity=".15" fill-rule="evenodd"/><path d="m84.003117 30.64664c0-1.259931-1.024727-2.282698-2.287072-2.282698s-2.287072 1.022767-2.287072 2.282698 1.024727 2.282699 2.287072 2.282699 2.287072-1.022768 2.287072-2.282699zm.285884 0c0 1.419275-1.150962 2.568036-2.572956 2.568036-1.421995 0-2.572956-1.148761-2.572956-2.568036s1.150961-2.568035 2.572956-2.568035c1.421994 0 2.572956 1.14876 2.572956 2.568035z" fill="#fff" fill-rule="evenodd"/><path d="m82.859581 31.195081v-3.972488h-2.287072v7.415064h2.287072v-2.382752l-.571768-.529912zm-2.283359-1.589736v1.059824l.571768-.529913z" fill="#fff" fill-rule="evenodd"/><path d="m82.859581 30.909743v-3.972488h-2.287072v7.415065h2.287072v-2.382752l-.571768-.529912zm-2.283359-1.589736v1.059825l.571768-.529913z" fill="#4c4c4c" fill-rule="evenodd"/><path d="m82.573697 31.032031v-3.524101h-1.715304v6.84439h1.715304v-2.001067l-.42697-.544735v-.289043zm-1.711591-.211224.426969-.478032v-.289043l-.426969-.48915z" fill="#7f7f7f" fill-rule="evenodd"/></g></svg>